<svg width="28" height="28" viewBox="0 0 28 28" fill="none" xmlns="http://www.w3.org/2000/svg">
<path d="M27.7549 6.36475C27.5472 6.10925 27.2355 5.96094 26.9062 5.96094H7.09494L7.01378 5.21544L7.01088 5.19148C6.6226 2.23191 4.07876 0 1.09375 0C0.489672 0 0 0.489672 0 1.09375C0 1.69783 0.489672 2.1875 1.09375 2.1875C2.9808 2.1875 4.58954 3.59565 4.8405 5.46481L6.14059 17.4086C5.00363 17.9246 4.21094 19.0707 4.21094 20.3984C4.21094 20.4076 4.21105 20.4167 4.21127 20.4258C4.21105 20.4349 4.21094 20.444 4.21094 20.4531C4.21094 22.2624 5.68291 23.7344 7.49219 23.7344H7.93723C7.826 24.0605 7.76562 24.41 7.76562 24.7734C7.76562 26.5525 9.21304 28 10.9922 28C12.7713 28 14.2187 26.5525 14.2187 24.7734C14.2187 24.41 14.1584 24.0605 14.0471 23.7344H18.7654C18.6542 24.0605 18.5938 24.41 18.5938 24.7734C18.5938 26.5525 20.0412 28 21.8204 28C23.5995 28 25.0469 26.5525 25.0469 24.7734C25.0469 22.9943 23.5995 21.5469 21.8204 21.5469H7.49219C6.88909 21.5469 6.39844 21.0562 6.39844 20.4531C6.39844 20.444 6.39833 20.4349 6.39811 20.4258C6.39833 20.4167 6.39844 20.4076 6.39844 20.3984C6.39844 19.7953 6.88909 19.3047 7.49219 19.3047H21.4556C23.3972 19.3047 25.1789 18.1034 25.995 16.2443C26.2377 15.6912 25.9862 15.046 25.4331 14.8031C24.88 14.5604 24.2348 14.8119 23.992 15.3651C23.532 16.4131 22.5127 17.1172 21.4556 17.1172H8.30927L7.33305 8.14844H25.5608L25.0257 10.7142C24.9023 11.3055 25.2817 11.8849 25.873 12.0082C25.9483 12.0239 26.0234 12.0315 26.0975 12.0315C26.6045 12.0315 27.0594 11.6769 27.1671 11.1608L27.9769 7.27803C28.0442 6.9557 27.9626 6.62025 27.7549 6.36475ZM21.8203 23.7344C22.3933 23.7344 22.8594 24.2005 22.8594 24.7734C22.8594 25.3464 22.3933 25.8125 21.8203 25.8125C21.2474 25.8125 20.7812 25.3464 20.7812 24.7734C20.7812 24.2005 21.2474 23.7344 21.8203 23.7344ZM10.9922 23.7344C11.5651 23.7344 12.0312 24.2005 12.0312 24.7734C12.0312 25.3464 11.5651 25.8125 10.9922 25.8125C10.4192 25.8125 9.95312 25.3464 9.95312 24.7734C9.95312 24.2005 10.4192 23.7344 10.9922 23.7344Z" fill="#292B2A"/>
</svg>
