<svg width="45" height="48" viewBox="0 0 45 48" fill="none" xmlns="http://www.w3.org/2000/svg">
<path d="M44.2808 11.8546C41.5772 7.58475 37.5691 4.30022 32.8513 2.48835C28.1334 0.676484 22.9571 0.433822 18.0904 1.79637C13.2237 3.15891 8.92596 6.05406 5.83477 10.0523C2.74356 14.0505 1.02365 18.9387 0.930199 23.9916C0.836751 29.0446 2.37475 33.9931 5.316 38.1028C8.25726 42.2126 12.445 45.2647 17.258 46.8062C22.071 48.3478 27.2527 48.2967 32.0344 46.6605C36.816 45.0243 40.9428 41.8902 43.8024 37.7233L42.2299 36.6441C39.6023 40.4729 35.8105 43.3527 31.4169 44.856C27.0233 46.3594 22.2621 46.4064 17.8398 44.99C13.4174 43.5735 9.56947 40.7691 6.86692 36.9929C4.16437 33.2167 2.75119 28.6698 2.83705 24.0269C2.92291 19.384 4.50325 14.8925 7.34358 11.2188C10.1839 7.54508 14.1329 4.88489 18.6046 3.63292C23.0763 2.38096 27.8325 2.60393 32.1675 4.26875C36.5025 5.93357 40.1853 8.95154 42.6695 12.8749L44.2808 11.8546Z" fill="white"/>
</svg>
