<svg width="13" height="13" viewBox="0 0 13 13" fill="none" xmlns="http://www.w3.org/2000/svg">
<g clip-path="url(#clip0_5_135)">
<path d="M12.7345 6.4599L8.40083 2.12618C8.27713 2.00247 8.11225 1.93457 7.93645 1.93457C7.76045 1.93457 7.59567 2.00257 7.47196 2.12618L7.0785 2.51974C6.9549 2.64325 6.8868 2.80822 6.8868 2.98412C6.8868 3.15993 6.9549 3.33046 7.0785 3.45397L9.60668 5.98771H1.57456C1.21241 5.98771 0.92627 6.27122 0.92627 6.63346V7.18984C0.92627 7.55208 1.21241 7.86418 1.57456 7.86418H9.63536L7.0786 10.4121C6.95499 10.5358 6.8869 10.6963 6.8869 10.8722C6.8869 11.0479 6.95499 11.2107 7.0786 11.3343L7.47206 11.7266C7.59577 11.8503 7.76055 11.9177 7.93655 11.9177C8.11235 11.9177 8.27722 11.8494 8.40093 11.7257L12.7345 7.39209C12.8585 7.26799 12.9267 7.10233 12.9263 6.92624C12.9266 6.74956 12.8585 6.5838 12.7345 6.4599Z" fill="white"/>
</g>
<defs>
<clipPath id="clip0_5_135">
<rect width="12" height="12" fill="white" transform="translate(0.92627 0.926147)"/>
</clipPath>
</defs>
</svg>
