<svg width="25" height="25" viewBox="0 0 25 25" fill="none" xmlns="http://www.w3.org/2000/svg">
<path d="M24.6945 23.2218L17.5852 16.1125C18.9623 14.4115 19.7915 12.25 19.7915 9.89587C19.7915 4.43968 15.3519 0.00012207 9.8957 0.00012207C4.43951 0.00012207 0 4.43963 0 9.89583C0 15.352 4.43956 19.7916 9.89575 19.7916C12.2499 19.7916 14.4113 18.9624 16.1123 17.5854L23.2216 24.6947C23.4248 24.8978 23.6914 24.9999 23.9581 24.9999C24.2248 24.9999 24.4915 24.8978 24.6946 24.6947C25.1019 24.2874 25.1019 23.629 24.6945 23.2218ZM9.89575 17.7083C5.58745 17.7083 2.08333 14.2041 2.08333 9.89583C2.08333 5.58752 5.58745 2.0834 9.89575 2.0834C14.2041 2.0834 17.7082 5.58752 17.7082 9.89583C17.7082 14.2041 14.204 17.7083 9.89575 17.7083Z" fill="#292B2A"/>
</svg>
